<?xml version="1.0" encoding="UTF-8" standalone="no"?>
<!-- Created with Inkscape (http://www.inkscape.org/) -->

<svg
   width="12.699999mm"
   height="12.700033mm"
   viewBox="0 0 12.699999 12.700033"
   version="1.1"
   id="svg1"
   xml:space="preserve"
   xmlns:inkscape="http://www.inkscape.org/namespaces/inkscape"
   xmlns:sodipodi="http://sodipodi.sourceforge.net/DTD/sodipodi-0.dtd"
   xmlns="http://www.w3.org/2000/svg"
   xmlns:svg="http://www.w3.org/2000/svg"><sodipodi:namedview
     id="namedview1"
     pagecolor="#ffffff"
     bordercolor="#000000"
     borderopacity="0.25"
     inkscape:showpageshadow="2"
     inkscape:pageopacity="0.0"
     inkscape:pagecheckerboard="0"
     inkscape:deskcolor="#d1d1d1"
     inkscape:document-units="mm"><inkscape:page
       x="0"
       y="0"
       width="12.699999"
       height="12.700033"
       id="page2"
       margin="0"
       bleed="0" /></sodipodi:namedview><defs
     id="defs1" /><g
     inkscape:label="Layer 1"
     inkscape:groupmode="layer"
     id="layer1"
     transform="translate(-1.0014657,164.45792)"><g
       id="g51"><path
         style="fill:#33ff66;fill-opacity:1;stroke-width:0.800221"
         d="m 11.123224,-152.13495 c -0.598276,-0.60424 -1.04948,-1.21076 -1.3238073,-1.77948 -0.257245,-0.5333 -0.3472185,-0.91412 -0.3206383,-1.35712 0.019713,-0.32855 0.06968,-0.51647 0.2160628,-0.81266 0.2113488,-0.42763 0.5259758,-0.74218 0.9540438,-0.95382 0.348302,-0.1722 0.515939,-0.20959 0.939705,-0.20959 0.423154,0 0.590534,0.0372 0.939703,0.20901 0.539129,0.26524 0.960873,0.77743 1.112689,1.35131 0.0606,0.22908 0.07902,0.63445 0.03985,0.87717 -0.127929,0.79274 -0.708864,1.74801 -1.626873,2.67518 -0.337872,0.34125 -0.382081,0.37707 -0.465366,0.37707 -0.08328,0 -0.127496,-0.0358 -0.465367,-0.37707 z m 0.717892,-1.99229 c 0.309453,-0.08 0.551714,-0.27541 0.688762,-0.55542 0.311035,-0.6355 -0.06864,-1.36774 -0.77752,-1.49952 -0.549819,-0.10222 -1.093478,0.29309 -1.201478,0.87362 -0.07382,0.39677 0.131834,0.84402 0.485451,1.05576 0.26152,0.1566 0.525545,0.1978 0.804785,0.12556 z m -6.647907,1.0633 c -0.2327698,-0.0762 -0.4673216,-0.30023 -0.5437089,-0.51927 -0.021618,-0.062 -0.047502,-0.0818 -0.1242501,-0.0949 -0.5703135,-0.0975 -0.9790771,-0.2981 -1.3432523,-0.65909 -0.4304313,-0.42664 -0.6574353,-0.92825 -0.6911268,-1.52716 -0.040179,-0.71427 0.2157732,-1.3484 0.7412675,-1.83649 0.2221745,-0.20636 0.3977514,-0.31896 0.6980332,-0.44766 0.3674318,-0.15747 0.4999673,-0.17164 1.6051872,-0.17164 h 0.9901647 l 0.04791,-0.12542 c 0.068639,-0.17966 0.2792087,-0.38093 0.476278,-0.45524 0.223239,-0.0842 0.4995529,-0.0686 0.6978355,0.0392 0.1684273,0.0916 0.3249483,0.26188 0.3912156,0.42552 l 0.048359,0.11942 1.0058807,-0.0105 c 1.1193967,-0.0117 1.1441537,-0.0149 1.5352907,-0.20104 0.867908,-0.41303 1.275866,-1.41426 0.953643,-2.34047 -0.09185,-0.26402 -0.213019,-0.45266 -0.437468,-0.68109 -0.293233,-0.29842 -0.678607,-0.50172 -1.034326,-0.54565 l -0.121095,-0.015 -0.07231,0.14773 c -0.2555784,0.52218 -0.9706706,0.62646 -1.3712515,0.19995 -0.068191,-0.0726 -0.1442568,-0.18508 -0.1690371,-0.24994 l -0.045053,-0.11793 H 7.1102659 5.7891326 l -0.064974,-0.065 c -0.08596,-0.0859 -0.08596,-0.20754 0,-0.29347 l 0.064974,-0.065 h 1.3211333 1.3211342 l 0.04791,-0.1254 c 0.1098506,-0.28753 0.4497378,-0.50966 0.7798684,-0.50966 0.3288829,0 0.6700587,0.22223 0.7790135,0.50742 l 0.04706,0.12316 0.175935,0.0297 c 1.14367,0.1932 1.962697,1.15541 1.962697,2.30583 0,0.63255 -0.22987,1.17939 -0.688461,1.63781 -0.269679,0.26958 -0.515482,0.42984 -0.84164,0.54874 -0.345183,0.12583 -0.49564,0.13946 -1.5392147,0.13946 h -0.973485 l -0.04791,0.12541 c -0.1098498,0.28753 -0.449737,0.50965 -0.7798684,0.50965 -0.3313064,0 -0.6699795,-0.22201 -0.7806801,-0.51177 l -0.048726,-0.12754 -1.0213248,0.0114 c -1.0858885,0.0121 -1.1332447,0.0171 -1.4478122,0.15539 -0.5286223,0.23234 -0.9385153,0.7116 -1.0819958,1.26511 -0.1854632,0.71547 0.07032,1.48575 0.6487032,1.95357 0.2454796,0.19856 0.6105991,0.36323 0.8749915,0.39463 l 0.1210935,0.0144 0.072306,-0.14772 c 0.1892353,-0.38665 0.6529504,-0.56494 1.0667805,-0.41015 0.1911722,0.0715 0.4027899,0.27502 0.4706532,0.45265 l 0.04791,0.12541 H 7.741926 9.2086481 l 0.064974,0.065 c 0.040955,0.041 0.064974,0.0952 0.064974,0.14674 0,0.0515 -0.024019,0.1058 -0.064974,0.14674 l -0.064974,0.065 H 7.7419189 6.2751968 l -0.044652,0.11689 c -0.06339,0.16592 -0.2311587,0.34448 -0.4022872,0.42818 -0.1752376,0.0857 -0.4634722,0.11023 -0.6350521,0.0541 z m 0.4405175,-0.44696 c 0.1271395,-0.0641 0.2372263,-0.23294 0.2372263,-0.36384 0,-0.13091 -0.1100868,-0.29974 -0.2372263,-0.36384 -0.064958,-0.0327 -0.1487958,-0.0595 -0.1863027,-0.0595 -0.1309532,0 -0.2998575,0.11005 -0.3639695,0.23714 -0.032759,0.065 -0.059555,0.14874 -0.059555,0.18623 0,0.1309 0.1100867,0.29975 0.2372262,0.36383 0.064958,0.0327 0.1487959,0.0595 0.1863019,0.0595 0.037505,0 0.1213432,-0.0268 0.1863027,-0.0595 z m 1.9058791,-4.23373 c 0.1271394,-0.0641 0.2372263,-0.23292 0.2372263,-0.36383 0,-0.0375 -0.026805,-0.1213 -0.059556,-0.18623 -0.06411,-0.1271 -0.2330163,-0.23715 -0.3639702,-0.23715 -0.037505,0 -0.1213424,0.0268 -0.1863028,0.0595 -0.1271386,0.0641 -0.2372253,0.23293 -0.2372253,0.36383 0,0.0375 0.026804,0.1213 0.059555,0.18624 0.06411,0.12709 0.2330163,0.23714 0.3639695,0.23714 0.037505,0 0.1213431,-0.0268 0.1863035,-0.0595 z m 1.9058791,-4.23371 c 0.1271386,-0.0641 0.2372261,-0.23294 0.2372261,-0.36384 0,-0.0375 -0.026804,-0.12129 -0.059555,-0.18624 -0.06411,-0.12709 -0.2330163,-0.23713 -0.3639703,-0.23713 -0.037505,0 -0.1213424,0.0268 -0.1863027,0.0595 -0.1271386,0.0641 -0.2372262,0.23293 -0.2372262,0.36383 0,0.0375 0.026805,0.1213 0.059563,0.18624 0.06411,0.12709 0.2330155,0.23713 0.3639694,0.23713 0.037505,0 0.1213432,-0.0268 0.1863028,-0.0595 z m -8.0618758,2.12688 c -0.1359258,-0.0618 -0.2719597,-0.19771 -0.3337066,-0.33358 -0.045357,-0.0998 -0.048367,-0.22089 -0.048367,-1.94545 0,-2.05256 -0.009268,-1.94592 0.1861675,-2.14129 0.1938607,-0.19379 0.1140919,-0.1861 1.9303136,-0.1861 1.8162213,0 1.7364528,-0.008 1.9303131,0.1861 0.1954382,0.19537 0.1861667,0.0887 0.1861667,2.14129 0,2.05255 0.00926,1.94591 -0.1861667,2.14128 -0.1938603,0.19379 -0.1140918,0.1861 -1.9303131,0.1861 -1.5201108,0 -1.6349902,-0.003 -1.7344081,-0.0483 z m 2.8828417,-1.03881 c 0.036096,-0.0164 0.079797,-0.0641 0.097104,-0.10585 0.040419,-0.0975 -0.00392,-0.2153 -0.097104,-0.25774 -0.045365,-0.0206 -0.4000565,-0.0299 -1.1484336,-0.0299 -0.748378,0 -1.1030721,0.009 -1.1484337,0.0299 -0.093257,0.0425 -0.1375251,0.1602 -0.09701,0.25798 0.01736,0.0419 0.057522,0.0887 0.089241,0.10404 0.083091,0.0402 2.216724,0.0416 2.3046357,0.002 z m 0,-1.05843 c 0.036096,-0.0165 0.079797,-0.0641 0.097104,-0.10584 0.040419,-0.0975 -0.00392,-0.21532 -0.097104,-0.25774 -0.091913,-0.0419 -2.2049554,-0.0419 -2.2968673,0 -0.093257,0.0425 -0.1375251,0.16019 -0.09701,0.25796 0.01736,0.0419 0.057522,0.0887 0.089241,0.10406 0.083091,0.0402 2.216724,0.0416 2.3046357,0.002 z m -1.058822,-1.05843 c 0.1470127,-0.067 0.1470127,-0.29663 0,-0.36359 -0.089527,-0.0408 -1.1485184,-0.0408 -1.2380453,0 -0.093257,0.0425 -0.1375251,0.16019 -0.09701,0.25798 0.01736,0.0419 0.057522,0.0887 0.089241,0.10405 0.081105,0.0392 1.1602135,0.0406 1.2458137,0.002 z"
         id="path51" /><circle
         style="fill:#33ff66;fill-opacity:1;stroke-width:0.117104"
         id="path57"
         cx="7.3514652"
         cy="-158.10791"
         r="1.8215905" /><text
         xml:space="preserve"
         style="font-style:normal;font-variant:normal;font-weight:normal;font-stretch:normal;font-size:3.88955px;font-family:'Enclave Demo';-inkscape-font-specification:'Enclave Demo, Normal';font-variant-ligatures:normal;font-variant-caps:normal;font-variant-numeric:normal;font-variant-east-asian:normal;text-align:start;writing-mode:lr-tb;direction:ltr;text-anchor:start;fill:#0b4650;fill-opacity:1;stroke-width:0.324129"
         x="6.2814903"
         y="-156.75188"
         id="text57"><tspan
           sodipodi:role="line"
           id="tspan57"
           style="fill:#0b4650;fill-opacity:1;stroke-width:0.324129"
           x="6.2814903"
           y="-156.75188">p</tspan></text></g></g></svg>
